<mxfile host="65bd71144e">
    <diagram id="1wn15DY64OFITk2HPa6F" name="ページ1">
        <mxGraphModel dx="1229" dy="696" grid="1" gridSize="10" guides="1" tooltips="1" connect="1" arrows="1" fold="1" page="1" pageScale="1" pageWidth="827" pageHeight="1169" background="#ffffff" math="0" shadow="0">
            <root>
                <mxCell id="0"/>
                <mxCell id="1" parent="0"/>
                <mxCell id="5" value="AWS Cloud" style="sketch=0;outlineConnect=0;gradientColor=none;html=1;whiteSpace=wrap;fontSize=12;fontStyle=0;shape=mxgraph.aws4.group;grIcon=mxgraph.aws4.group_aws_cloud;strokeColor=#000000;fillColor=none;verticalAlign=top;align=left;spacingLeft=30;fontColor=#000000;dashed=0;" parent="1" vertex="1">
                    <mxGeometry x="200" y="40" width="800" height="440" as="geometry"/>
                </mxCell>
                <mxCell id="6" value="VPC" style="points=[[0,0],[0.25,0],[0.5,0],[0.75,0],[1,0],[1,0.25],[1,0.5],[1,0.75],[1,1],[0.75,1],[0.5,1],[0.25,1],[0,1],[0,0.75],[0,0.5],[0,0.25]];outlineConnect=0;gradientColor=none;html=1;whiteSpace=wrap;fontSize=12;fontStyle=0;container=1;pointerEvents=0;collapsible=0;recursiveResize=0;shape=mxgraph.aws4.group;grIcon=mxgraph.aws4.group_vpc;strokeColor=#248814;fillColor=none;verticalAlign=top;align=left;spacingLeft=30;fontColor=#AAB7B8;dashed=0;" parent="1" vertex="1">
                    <mxGeometry x="320" y="80" width="640" height="260" as="geometry"/>
                </mxCell>
                <mxCell id="24" value="Security group" style="fillColor=none;strokeColor=#DD3522;verticalAlign=top;fontStyle=0;fontColor=#DD3522;" vertex="1" parent="6">
                    <mxGeometry x="360" y="20" width="240" height="200" as="geometry"/>
                </mxCell>
                <mxCell id="14" value="Security group" style="fillColor=none;strokeColor=#DD3522;verticalAlign=top;fontStyle=0;fontColor=#DD3522;" parent="6" vertex="1">
                    <mxGeometry x="80" y="20" width="240" height="200" as="geometry"/>
                </mxCell>
                <mxCell id="8" value="" style="sketch=0;outlineConnect=0;fontColor=#232F3E;gradientColor=none;fillColor=#4D27AA;strokeColor=none;dashed=0;verticalLabelPosition=bottom;verticalAlign=top;align=center;html=1;fontSize=12;fontStyle=0;aspect=fixed;pointerEvents=1;shape=mxgraph.aws4.internet_gateway;" parent="6" vertex="1">
                    <mxGeometry x="-20" y="100" width="40" height="40" as="geometry"/>
                </mxCell>
                <mxCell id="7" value="Public subnet" style="points=[[0,0],[0.25,0],[0.5,0],[0.75,0],[1,0],[1,0.25],[1,0.5],[1,0.75],[1,1],[0.75,1],[0.5,1],[0.25,1],[0,1],[0,0.75],[0,0.5],[0,0.25]];outlineConnect=0;gradientColor=none;html=1;whiteSpace=wrap;fontSize=12;fontStyle=0;container=1;pointerEvents=0;collapsible=0;recursiveResize=0;shape=mxgraph.aws4.group;grIcon=mxgraph.aws4.group_security_group;grStroke=0;strokeColor=#248814;fillColor=#E9F3E6;verticalAlign=top;align=left;spacingLeft=30;fontColor=#248814;dashed=0;" parent="6" vertex="1">
                    <mxGeometry x="120" y="60" width="160" height="130" as="geometry"/>
                </mxCell>
                <mxCell id="25" value="" style="sketch=0;outlineConnect=0;fontColor=#232F3E;gradientColor=none;fillColor=#4D27AA;strokeColor=none;dashed=0;verticalLabelPosition=bottom;verticalAlign=top;align=center;html=1;fontSize=12;fontStyle=0;aspect=fixed;pointerEvents=1;shape=mxgraph.aws4.nat_gateway;" vertex="1" parent="7">
                    <mxGeometry x="59.5" y="40" width="40" height="40" as="geometry"/>
                </mxCell>
                <mxCell id="21" value="Terraform" style="shape=image;verticalLabelPosition=bottom;labelBackgroundColor=none;verticalAlign=top;aspect=fixed;imageAspect=0;image=data:image/png,iVBORw0KGgoAAAANSUhEUgAAAgAAAAIACAMAAADDpiTIAAAB+FBMVEUAAACAO/OAPPOAN+2CPfOBPPOCPPOqVf+BPPOAPvOCPPSDPvCBPPOCO/KBPPOBPPOBPPOBPPSAAP+JO+uAPPKAQO+BPPKBPPOBPPOBPPOBPPOCPfKAQOqBPfKEOveBPPOGPfODOvCIRO6APfOBPfOCPvWBPPOAQPKBPPOAK/+BPPSBPPOBPPKBPPOAPfWBO/OFPfWAPPOBPPSAO/WOOf+BPPKCPPWBPPOBPPOBPPOBO/SAO/WBPPP/AP+BPPOBPPOEOfaAM/+COvWBPPOBPPKBPPOBPPKAPfGAQPaBPPOBPPOBPfOLRuiCPPGEPvaBPPOCPPSBPPOBPPOAPPOBPPOAPvKBO/OAPPeBPPOBPPOAOfGBPPOAPvODPvGBPPOAQO+BPPOBPPOFN/SBPfOBPPSBPfSAPPKHPPCCOvKCO/OBPfOGNvKBPPKCPPSAPPCBPPOBPfSBPPOCPPOAPfOBPPOAO/WBPPOBPPOBPPOCPvSBPPOBPPOSSf+CPPOBPPSAQP+AQPSAO/GBO/OBPPOBO/WBPPOAQP+AOvOBPPOAOvOBPPOAPfSBPfOBPPSBPPOAPPSBPPOBPPOBPPOAPPSDO/KBPPSCO/OZM/+APPKAOfGBPPOCO/OAOfKCPfKAOvSBPPKBPPOBPPOCPPSDPvOCPPKBPPOBPPOBPPNSoHwvAAAAp3RSTlMAUpEOWOZmA80+syH5PeXM9ogCDTwgy/6q9eQ7DMof4hUjD1RTMcAU/AZv8U3dMsEZmd4aCXczwv3y3zTDAVXEGwo18+DFojYcgOHGCzcd917nx0DPOkEe6NAk+EIl4xDp0RekyUMmETls7BNRLyLWR/q7KthK7vu8LdrvB7/0CBg4ztdJ7QQs2Ra+LtvI0kTq69NIJ7QrBUwS1L0otTC21fBaKbfcuKvJ70YAAA8pSURBVHja7Z3pf1bFGUDTgCARBeKShEVcWUJEIolEbCiLBqOAcQMXXItKtbUF29rWttbaWu1uN7u3drv/Zt/ABea+611m5pmZ55xvhiTMnZyfczRzZ4aGAAAAAAAAAAAAAAAAAAAAAAAAAAAAAAAAAAAAAAAAACBZPje8QnoIIMnK7KpVq6UHAXKszLLs6jXSowAxlgXIspFrpMcBQlwUIFtLCiglFyAjBZRyWYBWClwrPRjwjyEAKaCRggCkgD6KApAC6mgXgBRQRqcApIAquglACiiiqwBZdh0poIQeAmTZOlJABT0FIAV00EeAbP0GUiB5+gmwnAKj0gMEt/QXgBRInkECkAKJM1iAVgpcLz1KcEYJAUiBlCklACmQLiUFIAVSpbQApECalBeAFEiSKgKQAglSTQBSIDmqCkAKJEZlAUiBtKghQCsFbpAeNtiilgCtFLhReuBgh5oCkAKpUFcAUiAR6gtACiRBEwFIgQRoJgApED0NBSAFYqexAFl2EykQMRYEIAVixooApEC82BGAFIgWWwKQApFiTwBSIEpsCkAKRIhVAUiB+LAsACkQG9YFyMbGSYGIsC8AKRAVLgQgBSLCjQCkQDS4EoAUiARnAmTZBCkQAQ4FyLKNpEDwOBWAFAgfxwKQAqHjWgBSIHDcC0AKBI0PAVopsEn6OaEHfgQgBYLFkwCkQKh4E4AUCBOPApACIeJVAFIgPPwKsJwCm6UfGUx8C0AKBIZ/AbJsCykQDhICtFLgZunnhhwRAUiBcBASgBQIBTEBSIEwEBSAFAgBSQFIgQCQFSDLtt4iPQPKkRYgu1V6BpSDAMpBAOWEIsBt/F8BGUIR4HauI2pxxxrvf2UwAnAd0dCd27KV3v/SgATI1g6vkP4ZCLJ9eEemXIDlcwVWS/8chNg5uWt5ArQLoPZmwqm7Lj4+AqhMgd13X3p4BMj0HTG0Z3rH5WdHgAtoOmIoX/wRoPhRNSkwdU/huRHgMipS4MrijwAdf5B+Cuw1Fn8E6PJHaafAzOyuzkdGgCIJp0Db4o8APf440RS4d1/3x0WADlJMgb3Tcz2eFgG6kFoKzMze1/NZEaArSV1SPLW/z5MiQA+SuY7o/s/3fU4E6EUaKdB78UeAgZ8Yfwr0W/wRoMSnxn3w8PyB/YMfEQH6E3EK3P+FMg+IAAOINQUODlr8EaDs58eYAocGL/4IUP4rYkuBUos/AlT4krhOGzxcavFHgEpfFE8KlF38EaDil8WRAodmj1R7LAQoT/gpMH/ggaoPhQAVCD0FDj9Y/ZkQoBIh30FwcGGsxhMhQEVCPW2w8uKPAHW/PsQUqLH4I0DtbxBeChytsfgjQINvEVYKPFRr8UeARt8knBQ4tLi+yYMgQF3CuI5o/sDDzR4DAWoTQgocfaTpUyBAA6RToNHijwA2vpdkChxrtvjnIEBDpO4gaLz45yBAU2TuIDjeePHPQYDm+L+D4ISFxT8HAWzgNwWOLT5qb+gIYAd/KTC69JjNgSOAJXylwPHH7Y4bAazhIwUsLv45CGCRjUvzTqfO6uKfgwBWcZkClhf/HASwi7sUeOJJJwNGANu4SYETC46GiwD2sZ8CLhb/HARwwZanbM6Ym8U/BwGcYDMFTrpZ/HMQwBG2UuCUq8U/BwGcYSMFNrtb/HMQwCFNU2B06WnnY0QAlzRLgZPPeBgiArilfgo8O+5lgAjgmnopsHnxOT/DQwD3VE8BH4t/DgJ4oGoKnPax+OcggBeqpMDzfhb/HATwxAslU+DFDZ4W/xwE8EaZFBhdesnzqBDAH2PjpwbMzemXvQ/KvwCvfHHM+1MWEBOglQKLM31mxu/in+NfgLLHWDtDUIB+KeB78c+REKDSWbb2ERUgy850TQH/i3+OiABVTrO2j7AAXVPgVf+Lf46QAJWPtLWItACdKfCaxOKfIyaAXArIC1BMgddlFv8cQQGkUiAEAVopcDafhS+9IToOSQGEUiAMAbK5vASEhyErgEgKBCLApXEIj0JaAIEUQAATeQG8pwACmAQggO8UQACTIATwmwIIYBKIAD5TAAFMghHAXwoggEk4AnhLAQQwCUkATymAACZhCeAlBRDAJDQBPKQAApgEJ4D7FEAAkwAFcJ0CCGASpABuUwABTAIVwGUKIIBJqAI4TAEEMAlXAGcpgAAmIQvgKAUQwCRsAZykAAKYBC6AixRAAJPgBbCfAghgEoEAtlMAAUyiEMBuCiCASRwCWE0BBDCJRQCLKYAAJvEIYC0FEMAkJgFaKfCAvYlHgAtEJcByChyxNfEIcIHIBLCRAghgEp0AQ0OHG6YAAphEKEDTFEAAkxgFaJgCCGASpwCNUgABTGIVoEEKIIBJvALUTgEEMIlYgLopgAAmUQtQLwUQwCRyAeqkAAKYRC9A9RRAAJP4BaicAghgkoIAFVMAAUzSEKBSCiCASSoCVEgBBDBJRoDyKYAAJgkJUDYFEMAkKQHKpQACmCQmQJkUQACT1AQokQIIYJKeAK0UWBgrMfEIcIEUBRiQAghgkqYAfVMAAUwSFaBfCiCASbIC9E4BBDBJWIBeKYAAJkkL0D0FEMAkbQG6pgACmKQuQJcUQACT9AXoSAEEMNEgQFsKIICJCgGKKYAAJkoEMFMAAUzUCHAlBRBAqQCXUgABtAqQpwAC6BXgQgoggGYBhobOvokAqgW4BAIgAAIgAAJI/xzE+DICtNj6Femfgxh2Dh6OW4D1GzZL/xgksXHwcNQCjNwo/SOQZsAbBGkLsO5a6ekPgcMPKhXgqlWrpec+DORSQFKAtcMrpCc+HKRSQFCAkbekJz0sZFJATICvfk16woOgsARKpICQAG9Msvhf4I5x8z+C5g88rEKAc8O3SU98KNyeTWy43vjnQ4vr0xfg/NvS0x4Oy78L2Lhq1PjIQ35TwL8AX/+G9KSHxMVfBm3ZZH7s6CMJC/DN2Z3Scx4U+W8Dx8ZvNj7oMwX8CvDO9C3SMx4Yl38dPFH4jYi/FPAqwLe+LT3fwWHsB5BJAY8CfOeA9GwHSGFDiEQKeBPg3dnvSk92iBR3BAmkgCcB5hZekZ7qMGnfElZMgWOLj6YhwPf0bvkZQOeewGIKnHCdAj4E2LokPc3h0m1TaDEFjj8euQDfX3xPepYDpuuu4LYUWHosYgHGFn4gPcdB02NbuL8UcCzAmbPSMxw4Pd8L2Lg0b3yauxRwKkDxIaALfV4MKabA+45SwKEAE7q3e5ej35tBxRQYdZMCzgQojh560P/VMA8p4EqAdTdIT20cDHo3sD0FIhHgusL/zIDeDH45tJgCTzwZgQBs9y5PibeD3aaAAwFGrpGe1Ygo9Xq4yxSwLsAP10jPaVSUPB+gmAKnLKaAZQHY7l2R0gdEbHnK/LKTzwQpANu9K1P+hJD2FHg6PAHY7l2dKkfEFFNg8+JzYQnwwY+kJzNGqp0RVEyBZ8cDEuDHkx9Kz2WUVD0kynoK2BHgnent0jMZKZVPCbOdAlYEOP8T6XmMlhrHxNlNAQsCfMR27/rUOifQZgo0FoDt3o2oeVBkMQVOvywmwNzCx9JTGDd1TwptT4GXZAT46c+kJzB26h8VW0yBFzfUTIEmAvycxb8xTc4KLqbA8/VSoL4AbPe2QbPDoi2kQF0B5tjubYWGp4U3T4GaAvzifemZS4TGx8U3TYFaArzAdm9bWLgvoFkK1BBgYnFGetrSwcqFEcUUePWXTgVgu7dV7NwYUvyhfLiqQgpUFeCmTbWeE3pg68qYYgq8Xj4FqgnAdm/b2LszqBhmr5VNgSoCrC+caQk2sHlpVDEFflUuBSoIwHZvB1i9Naw9BX5tU4Cr2e7tAsvXxrWnwFpbAnzCdm83WL83sC0FRqwIcI53vVzh4OLIthT4TXMBRm6VnqZ0cXFzaKUUGCzAB7+VnqSUcXN1bIUUGCQA273d4uru4GIK/O73NQU4x3Zvx7i7PPpMuRToK8D5P0jPT/I4vD18bPyU8Rd9uuqTqgJ89Efp2VGA0+vji7+3/dPwO1UE4GoPLzgVoEwK9BCA7d6ecCxARwr8uZwAf2G7tyecCzAoBboJwHZvf7gXYEAKdApwZJF3vfzhQ4D2FPjr3/oIwNUefvEjQPup3UYKtAmw7e/SM6IMXwK0p8Dku90E2Mp2b994E6BXChgCTPCul388CtCRAv8oCFD8VwR4wqsAHSnwzysCFHcRgC88C9CRAp/lAvyLxV8G3wK0p8DHXOohi38BeLUzKCQE4C6vgJARgOQPBiEBeMc7FMQEIAXCQFAAUiAERAUgBeSRFSDLjuyRngHlSAuQ8daXLAigHARQDgIoBwGUgwDKQQDlIIByEEA5CKAcBFAOAigHAZSDAMpBAOUggHIQQDkIoBwEUA4CKAcBlIMAykEA5SCAchBAOQigHARQDgIoBwGUgwDKQQDlIIByEEA5CKAcBFAOAigHAZSDAMpBAOUggHIQQDkIoBwEUA4CKAcBlIMAykEA5SCAchBAOQigHARQDgIoBwGUgwDKQQDlIIByEEA5CKAcBFAOAigHAZSDAMpBAOUggHIQQDkIoBwEUA4CKAcBlIMAyjm+CwF08+bwDgTQzb//gwDKmfovAujm08nPEEA3YimAAKEglAIIEA4iKYAAASGRAggQFP5TAAECw3cKIEBw+E0BBAgPrymAACHiMQUQIEze/h8CKMdTCiBAsPhJAQQIGB8pgABBc+c2BFCO6xRAgNBxnAIIED5OUwABYsBhCiBAHEzdhQC62Tnp5g0CBIiG7U5SAAEiwkUKIEBU2E8BBIgL6ymAALFhOQUQID6spgACxIjFFECAKLGXAggQKbZSAAGiZffdCKAcGymAADFjIQUQIG4apwACxE7DFECA+GmUAgiQAE1SAAGSYM903RRAgESomwIIkAz1UgAB0qFWCiBAStRIAQRIi8opgACpMXUPAuimWgogQIJUSQEESJLyKYAAiVI2BRAgVUqmAAKkS6kUQICU2b0PAZQzMAUQIHEGpQACJM/evimAAAq4dx8CKKd3CiCADmZmdyGAbvZOzyGAbrqmAAJooksKIIAqZmbvQwDdtKcAAqijmAIIoBAzBRBAI0YKIIBOLqcAAmglTwEE0MvUfgTQzXIKIIBqDi68JT0EAAAAAAAAAAAAAAAAAAAAAAAAAAAAAAAAAAAAAAAAAEid/wPBT2aHyoaJswAAAABJRU5ErkJggg==;fontColor=#000000;" parent="6" vertex="1">
                    <mxGeometry x="500" y="130" width="40" height="40" as="geometry"/>
                </mxCell>
                <mxCell id="15" value="AWSサービス" style="rounded=1;whiteSpace=wrap;html=1;fontColor=#000000;gradientColor=none;opacity=50;fillColor=none;strokeColor=#000000;strokeWidth=2;align=left;labelPosition=center;verticalLabelPosition=middle;verticalAlign=top;" parent="1" vertex="1">
                    <mxGeometry x="320" y="370" width="360" height="100" as="geometry"/>
                </mxCell>
                <mxCell id="17" value="EC2" style="sketch=0;points=[[0,0,0],[0.25,0,0],[0.5,0,0],[0.75,0,0],[1,0,0],[0,1,0],[0.25,1,0],[0.5,1,0],[0.75,1,0],[1,1,0],[0,0.25,0],[0,0.5,0],[0,0.75,0],[1,0.25,0],[1,0.5,0],[1,0.75,0]];outlineConnect=0;fontColor=#232F3E;gradientColor=#F78E04;gradientDirection=north;fillColor=#D05C17;strokeColor=#ffffff;dashed=0;verticalLabelPosition=bottom;verticalAlign=top;align=center;html=1;fontSize=12;fontStyle=0;aspect=fixed;shape=mxgraph.aws4.resourceIcon;resIcon=mxgraph.aws4.ec2;" parent="1" vertex="1">
                    <mxGeometry x="380" y="400.5" width="39" height="39" as="geometry"/>
                </mxCell>
                <mxCell id="18" value="RDS" style="sketch=0;points=[[0,0,0],[0.25,0,0],[0.5,0,0],[0.75,0,0],[1,0,0],[0,1,0],[0.25,1,0],[0.5,1,0],[0.75,1,0],[1,1,0],[0,0.25,0],[0,0.5,0],[0,0.75,0],[1,0.25,0],[1,0.5,0],[1,0.75,0]];outlineConnect=0;fontColor=#232F3E;gradientColor=#4D72F3;gradientDirection=north;fillColor=#3334B9;strokeColor=#ffffff;dashed=0;verticalLabelPosition=bottom;verticalAlign=top;align=center;html=1;fontSize=12;fontStyle=0;aspect=fixed;shape=mxgraph.aws4.resourceIcon;resIcon=mxgraph.aws4.rds;" parent="1" vertex="1">
                    <mxGeometry x="440" y="400.5" width="39.5" height="39.5" as="geometry"/>
                </mxCell>
                <mxCell id="19" value="S3" style="sketch=0;points=[[0,0,0],[0.25,0,0],[0.5,0,0],[0.75,0,0],[1,0,0],[0,1,0],[0.25,1,0],[0.5,1,0],[0.75,1,0],[1,1,0],[0,0.25,0],[0,0.5,0],[0,0.75,0],[1,0.25,0],[1,0.5,0],[1,0.75,0]];outlineConnect=0;fontColor=#232F3E;gradientColor=#60A337;gradientDirection=north;fillColor=#277116;strokeColor=#ffffff;dashed=0;verticalLabelPosition=bottom;verticalAlign=top;align=center;html=1;fontSize=12;fontStyle=0;aspect=fixed;shape=mxgraph.aws4.resourceIcon;resIcon=mxgraph.aws4.s3;" parent="1" vertex="1">
                    <mxGeometry x="500" y="400" width="39.5" height="39.5" as="geometry"/>
                </mxCell>
                <mxCell id="20" value="IAM" style="sketch=0;points=[[0,0,0],[0.25,0,0],[0.5,0,0],[0.75,0,0],[1,0,0],[0,1,0],[0.25,1,0],[0.5,1,0],[0.75,1,0],[1,1,0],[0,0.25,0],[0,0.5,0],[0,0.75,0],[1,0.25,0],[1,0.5,0],[1,0.75,0]];outlineConnect=0;fontColor=#232F3E;gradientColor=#F54749;gradientDirection=north;fillColor=#C7131F;strokeColor=#ffffff;dashed=0;verticalLabelPosition=bottom;verticalAlign=top;align=center;html=1;fontSize=12;fontStyle=0;aspect=fixed;shape=mxgraph.aws4.resourceIcon;resIcon=mxgraph.aws4.identity_and_access_management;" parent="1" vertex="1">
                    <mxGeometry x="560" y="400.5" width="39.5" height="39.5" as="geometry"/>
                </mxCell>
                <mxCell id="26" value="" style="sketch=0;outlineConnect=0;fontColor=#232F3E;gradientColor=none;fillColor=#4D27AA;strokeColor=none;dashed=0;verticalLabelPosition=bottom;verticalAlign=top;align=center;html=1;fontSize=12;fontStyle=0;aspect=fixed;pointerEvents=1;shape=mxgraph.aws4.endpoint;" vertex="1" parent="1">
                    <mxGeometry x="780" y="320" width="40" height="40" as="geometry"/>
                </mxCell>
                <mxCell id="27" value="SystemManager&lt;br&gt;SessionManager" style="sketch=0;points=[[0,0,0],[0.25,0,0],[0.5,0,0],[0.75,0,0],[1,0,0],[0,1,0],[0.25,1,0],[0.5,1,0],[0.75,1,0],[1,1,0],[0,0.25,0],[0,0.5,0],[0,0.75,0],[1,0.25,0],[1,0.5,0],[1,0.75,0]];points=[[0,0,0],[0.25,0,0],[0.5,0,0],[0.75,0,0],[1,0,0],[0,1,0],[0.25,1,0],[0.5,1,0],[0.75,1,0],[1,1,0],[0,0.25,0],[0,0.5,0],[0,0.75,0],[1,0.25,0],[1,0.5,0],[1,0.75,0]];outlineConnect=0;fontColor=#232F3E;gradientColor=#F34482;gradientDirection=north;fillColor=#BC1356;strokeColor=#ffffff;dashed=0;verticalLabelPosition=bottom;verticalAlign=top;align=center;html=1;fontSize=12;fontStyle=0;aspect=fixed;shape=mxgraph.aws4.resourceIcon;resIcon=mxgraph.aws4.systems_manager;" vertex="1" parent="1">
                    <mxGeometry x="780" y="400" width="40" height="40" as="geometry"/>
                </mxCell>
                <mxCell id="28" value="内部向けフロー" style="edgeStyle=orthogonalEdgeStyle;html=1;endArrow=block;elbow=vertical;startArrow=none;endFill=1;strokeColor=#001DBC;rounded=0;fillColor=#0050ef;strokeWidth=3;labelPosition=center;verticalLabelPosition=bottom;align=center;verticalAlign=top;fontColor=#000000;labelBackgroundColor=none;" edge="1" parent="1">
                    <mxGeometry width="100" relative="1" as="geometry">
                        <mxPoint x="199.99999999999977" y="520" as="sourcePoint"/>
                        <mxPoint x="259.9999999999998" y="520" as="targetPoint"/>
                    </mxGeometry>
                </mxCell>
                <mxCell id="29" value="外部向けフロー" style="edgeStyle=orthogonalEdgeStyle;html=1;endArrow=block;elbow=vertical;startArrow=none;endFill=1;strokeColor=#FF0000;rounded=0;fillColor=#e51400;strokeWidth=3;labelPosition=center;verticalLabelPosition=bottom;align=center;verticalAlign=top;fontColor=#000000;labelBackgroundColor=none;" edge="1" parent="1">
                    <mxGeometry width="100" relative="1" as="geometry">
                        <mxPoint x="319.9999999999998" y="520" as="sourcePoint"/>
                        <mxPoint x="379.9999999999998" y="520" as="targetPoint"/>
                    </mxGeometry>
                </mxCell>
                <mxCell id="23" value="Private subnet" style="points=[[0,0],[0.25,0],[0.5,0],[0.75,0],[1,0],[1,0.25],[1,0.5],[1,0.75],[1,1],[0.75,1],[0.5,1],[0.25,1],[0,1],[0,0.75],[0,0.5],[0,0.25]];outlineConnect=0;gradientColor=none;html=1;whiteSpace=wrap;fontSize=12;fontStyle=0;container=1;pointerEvents=0;collapsible=0;recursiveResize=0;shape=mxgraph.aws4.group;grIcon=mxgraph.aws4.group_security_group;grStroke=0;strokeColor=#147EBA;fillColor=#E6F2F8;verticalAlign=top;align=left;spacingLeft=30;fontColor=#147EBA;dashed=0;" vertex="1" parent="1">
                    <mxGeometry x="720" y="140" width="160" height="130" as="geometry"/>
                </mxCell>
                <mxCell id="11" value="Cloud9" style="sketch=0;points=[[0,0,0],[0.25,0,0],[0.5,0,0],[0.75,0,0],[1,0,0],[0,1,0],[0.25,1,0],[0.5,1,0],[0.75,1,0],[1,1,0],[0,0.25,0],[0,0.5,0],[0,0.75,0],[1,0.25,0],[1,0.5,0],[1,0.75,0]];outlineConnect=0;fontColor=#232F3E;gradientColor=#4D72F3;gradientDirection=north;fillColor=#3334B9;strokeColor=#ffffff;dashed=0;verticalLabelPosition=bottom;verticalAlign=top;align=center;html=1;fontSize=12;fontStyle=0;aspect=fixed;shape=mxgraph.aws4.resourceIcon;resIcon=mxgraph.aws4.cloud9;labelPosition=center;" parent="23" vertex="1">
                    <mxGeometry x="60" y="40" width="40" height="40" as="geometry"/>
                </mxCell>
                <mxCell id="31" value="" style="html=1;endArrow=block;elbow=vertical;startArrow=none;endFill=1;strokeColor=#FF0000;rounded=0;fillColor=#e51400;strokeWidth=3;labelPosition=center;verticalLabelPosition=bottom;align=center;verticalAlign=top;fontColor=#000000;labelBackgroundColor=none;exitX=0;exitY=0.5;exitDx=0;exitDy=0;exitPerimeter=0;" edge="1" parent="1" source="11" target="25">
                    <mxGeometry width="100" relative="1" as="geometry">
                        <mxPoint x="780" y="210" as="sourcePoint"/>
                        <mxPoint x="699.9999999999998" y="210" as="targetPoint"/>
                    </mxGeometry>
                </mxCell>
                <mxCell id="32" value="" style="html=1;endArrow=block;elbow=vertical;startArrow=none;endFill=1;strokeColor=#FF0000;rounded=0;fillColor=#e51400;strokeWidth=3;labelPosition=center;verticalLabelPosition=bottom;align=center;verticalAlign=top;fontColor=#000000;labelBackgroundColor=none;" edge="1" parent="1" source="25" target="33">
                    <mxGeometry width="100" relative="1" as="geometry">
                        <mxPoint x="460" y="204.41" as="sourcePoint"/>
                        <mxPoint x="160" y="204" as="targetPoint"/>
                    </mxGeometry>
                </mxCell>
                <mxCell id="33" value="Internet" style="sketch=0;outlineConnect=0;fontColor=#232F3E;gradientColor=none;strokeColor=#232F3E;fillColor=none;dashed=0;verticalLabelPosition=bottom;verticalAlign=top;align=center;html=1;fontSize=12;fontStyle=0;aspect=fixed;shape=mxgraph.aws4.resourceIcon;resIcon=mxgraph.aws4.internet;" vertex="1" parent="1">
                    <mxGeometry x="130" y="180" width="40" height="40" as="geometry"/>
                </mxCell>
                <mxCell id="35" value="" style="html=1;endArrow=block;elbow=vertical;startArrow=none;endFill=1;strokeColor=#001DBC;rounded=0;fillColor=#0050ef;strokeWidth=3;labelPosition=center;verticalLabelPosition=bottom;align=center;verticalAlign=top;fontColor=#000000;labelBackgroundColor=none;exitX=0.5;exitY=0;exitDx=0;exitDy=0;exitPerimeter=0;" edge="1" parent="1" source="27">
                    <mxGeometry width="100" relative="1" as="geometry">
                        <mxPoint x="719.9999999999998" y="520" as="sourcePoint"/>
                        <mxPoint x="800" y="240" as="targetPoint"/>
                    </mxGeometry>
                </mxCell>
                <mxCell id="36" value="" style="html=1;endArrow=block;elbow=vertical;startArrow=none;endFill=1;strokeColor=#FF0000;rounded=0;fillColor=#e51400;strokeWidth=3;labelPosition=center;verticalLabelPosition=bottom;align=center;verticalAlign=top;fontColor=#000000;labelBackgroundColor=none;entryX=0;entryY=0.5;entryDx=0;entryDy=0;edgeStyle=orthogonalEdgeStyle;" edge="1" parent="1" target="15">
                    <mxGeometry width="100" relative="1" as="geometry">
                        <mxPoint x="260" y="200" as="sourcePoint"/>
                        <mxPoint x="179.99999999999977" y="210" as="targetPoint"/>
                        <Array as="points">
                            <mxPoint x="260" y="420"/>
                        </Array>
                    </mxGeometry>
                </mxCell>
            </root>
        </mxGraphModel>
    </diagram>
</mxfile>